<?xml version="1.0" encoding="UTF-8"?> <svg xmlns="http://www.w3.org/2000/svg" width="232" height="118" fill="none"><g clip-path="url(#a)" fill="#1A050B"><path d="M76.776 101.414c-.022.12-.078.29-.162.519a7.85 7.85 0 0 1-.338.765 1.345 1.345 0 0 1-.115.167c-.02-.003-.04-.01-.057-.01-.115-.076-.234-.15-.347-.22a.58.58 0 0 0-.06-.046c.076-.48.086-.834.02-1.055a1.417 1.417 0 0 0-.67-.862c-.316-.182-.614-.251-.888-.214-.279.047-.485.183-.614.409-.115.189-.128.431-.047.721.078.28.375.686.889 1.192.171.17.369.397.591.68.223.284.375.538.448.762.1.302.147.56.132.777-.022.218-.1.46-.238.726a2.406 2.406 0 0 1-.631.75 1.397 1.397 0 0 1-.541.239 3.034 3.034 0 0 1-.666.056c-.291 0-.566-.037-.835-.12a4.223 4.223 0 0 1-.954-.437 5.759 5.759 0 0 1-.82-.601c-.176-.177-.354-.352-.529-.532-.147-.147-.232-.251-.256-.312-.01-.019-.01-.063.006-.113a23.696 23.696 0 0 0 .372-.672c.113-.195.189-.334.238-.416.037-.056.069-.11.103-.169.16.093.319.189.475.283a8.76 8.76 0 0 0-.044.792c.02.214.063.409.135.576.072.172.181.339.332.5.147.157.326.302.538.425.188.106.414.192.679.248.266.057.51.044.736-.037a.887.887 0 0 0 .488-.403c.12-.224.113-.5-.015-.824-.078-.195-.379-.571-.888-1.127-.51-.554-.832-.982-.98-1.277a1.917 1.917 0 0 1-.19-.944c.022-.337.1-.623.244-.856.289-.472.713-.755 1.28-.866.563-.108 1.195.047 1.911.46.154.085.367.243.642.469.168.133.379.333.631.598l-.005-.001ZM77.302 109.09c.053-.104.11-.21.163-.312.078.016.21.047.394.1.3.092.485.126.56.116.079-.012.194-.069.348-.169a121.012 121.012 0 0 0 4.729-4.424c.11.047.215.094.315.138l.232.094c.003.037.007.075.007.106.02.785.041 1.57.076 2.36.031.5.053.984.063 1.454.003.465.022.846.044 1.144.012.18.022.447.031.802 0 .192.02.438.057.733.025.17.047.268.075.308a.749.749 0 0 0 .285.22c.141.069.29.17.44.295a1.502 1.502 0 0 1-.061.246l-.044.106a10.074 10.074 0 0 1-.889-.378c-.318-.153-.61-.283-.87-.384-.291-.116-.504-.194-.632-.246a42.723 42.723 0 0 1-.951-.345c-.094-.031-.182-.07-.272-.101.044-.113.1-.216.15-.314.218.044.435.094.65.138.203.038.32.044.36.038a.174.174 0 0 0 .1-.088.438.438 0 0 0 .025-.145c-.01-.182-.013-.371-.025-.56-.012-.372-.019-.746-.029-1.117a74.695 74.695 0 0 1-2.023-.891c-.145.12-.47.416-.974.9a1.446 1.446 0 0 0-.26.293c-.034.083-.037.152 0 .207.054.104.191.218.414.347.031.022.15.098.362.223-.05.12-.08.199-.1.242-.02.034-.034.073-.059.103-.225-.1-.751-.364-1.568-.818a3.151 3.151 0 0 1-.238-.075 5.812 5.812 0 0 1-.788-.302c-.027-.015-.063-.032-.093-.051l-.004.007Zm3.733-1.479c.814.378 1.295.592 1.446.655.05.016.09.031.135.051.016-.328.019-.718.012-1.167a18.184 18.184 0 0 0-.034-1.038 90.438 90.438 0 0 1-1.559 1.5v-.001ZM89.64 107.379a8.94 8.94 0 0 0 .115-.391l.198.06c.169.056.35.123.538.194.448.173.714.268.795.293.275.089.55.17.82.242l.717.192c.21.062.35.1.425.116-.01.022-.015.034-.02.056-.027.098-.053.199-.077.293 0 .012-.007.029-.013.044a4.92 4.92 0 0 1-.619-.143c-.194-.057-.338-.057-.423-.007-.056.038-.134.226-.242.575-.031.104-.053.192-.07.261-.016.06-.035.12-.048.183-.053.15-.103.307-.153.465-.03.135-.06.27-.088.406-.094.285-.191.568-.282.853-.103.424-.206.849-.303 1.271-.09.368-.09.699-.003.985.063.214.19.399.382.563.272.236.563.396.869.482.362.101.71.148 1.042.148.198.006.394-.025.585-.089.19-.063.332-.128.416-.201a1.98 1.98 0 0 0 .41-.448c.126-.204.248-.541.367-1.006.203-.819.385-1.744.55-2.788.013-.093.032-.186.045-.277.037-.195.034-.34-.013-.424a.582.582 0 0 0-.344-.255c-.166-.038-.331-.082-.497-.123-.025-.01-.047-.022-.066-.032l.112-.384c.14.038.28.073.416.111.329.101.66.204.996.302.338.082.66.148.976.188.025.012.06.022.088.032-.007.12-.012.198-.025.238a.67.67 0 0 1-.05.133 1.738 1.738 0 0 1-.43-.037c-.242-.025-.38-.032-.41-.02-.06.028-.101.086-.12.17-.02.062-.035.151-.051.268a3.644 3.644 0 0 1-.094.447c-.024.116-.046.207-.059.274-.019.071-.031.138-.046.214-.047.241-.098.491-.15.742-.066.347-.132.692-.194 1.039-.168.691-.306 1.146-.415 1.365-.11.22-.226.384-.35.497-.189.17-.433.308-.732.409-.301.1-.658.154-1.07.15a5.558 5.558 0 0 1-1.395-.226c-.585-.17-1.064-.387-1.443-.655-.375-.263-.632-.541-.773-.834a1.904 1.904 0 0 1-.154-1.01c.025-.265.113-.62.254-1.076.257-.786.507-1.576.763-2.359.179-.561.25-.888.219-.975-.044-.132-.267-.265-.66-.408a1.48 1.48 0 0 1-.213-.094l-.003.001ZM107.002 110.896c.037.113.097.415.193.915.042.222.054.462.025.714-.163-.017-.328-.032-.494-.054-.301-.507-.617-.891-.957-1.136a2.66 2.66 0 0 0-1.196-.473 1.734 1.734 0 0 0-1.439.424c-.551.488-.917 1.23-1.079 2.237-.098.578-.122.999-.079 1.262.073.425.189.777.357 1.063.132.219.319.406.563.553.313.207.664.337 1.052.39.416.056.845-.007 1.268-.192.422-.185.838-.497 1.245-.923.141-.009.328-.006.557.017a3.744 3.744 0 0 1-.115.399c-.019.054-.084.268-.2.639a1.334 1.334 0 0 1-.069.151l-.106.239c-.254.131-.594.216-1.032.248a7.97 7.97 0 0 1-1.593-.079 6.627 6.627 0 0 1-1.331-.314 3.484 3.484 0 0 1-1.023-.548c-.394-.321-.692-.645-.885-.975a2.893 2.893 0 0 1-.379-1.038 3.33 3.33 0 0 1 .034-1.171c.188-1.013.707-1.784 1.524-2.328.82-.541 1.759-.726 2.844-.578.441.063.854.138 1.238.233.389.088.749.199 1.077.322v.003ZM110.664 117.859c.01-.125.016-.248.025-.378.078-.01.206-.037.382-.064.257-.044.445-.091.57-.145.075-.103.115-.255.125-.444l.024-.61c.022-.397.042-.793.066-1.186.003-.098.003-.192.007-.283.066-.686.094-1.038.094-1.061.006-.226.012-.459.021-.691.01-.089.02-.182.025-.278v-.817a.795.795 0 0 0-.025-.17c-.146-.069-.381-.123-.716-.16-.081-.01-.142-.015-.191-.028.007-.151.012-.302.016-.459.514.049 1.026.1 1.54.14.19.016.306.023.357.025.21.007.55 0 1.02-.015.259-.01.425-.019.494-.019.007.063.007.12.007.163 0 .063-.007.138-.019.23a4.827 4.827 0 0 1-.495.129c-.19.037-.344.078-.462.12a1.768 1.768 0 0 0-.044.389c-.003.152-.003.271.002.366a80.54 80.54 0 0 0-.053 1.353c-.01.46-.025.915-.032 1.375-.015.229-.031.462-.049.696l-.01 1.038c-.007.069-.009.135-.019.202a.302.302 0 0 0 .032.12c.232.049.445.088.635.113.037 0 .153.019.351.044a1.542 1.542 0 0 1 .012.44h-.12c-.122.007-.193.007-.212.007a59.519 59.519 0 0 0-.924-.11c-.345-.017-.688-.032-1.033-.054-.203-.007-.504 0-.898.013-.257.006-.423.009-.504.009h.001ZM122.312 111.163c.044.116.095.293.142.526.071.352.119.63.131.825.003.063.003.129-.002.204-.022.01-.035.01-.054.022-.134 0-.266 0-.401.003-.024-.003-.044-.003-.066-.003-.193-.45-.379-.746-.547-.9a1.341 1.341 0 0 0-.996-.352c-.353.022-.632.125-.827.315a.823.823 0 0 0-.287.676c.01.224.123.431.341.625.216.195.663.372 1.351.517.228.044.507.128.835.239.335.12.59.251.769.396.241.195.416.391.516.585.103.192.166.434.191.729a2.38 2.38 0 0 1-.115.976c-.059.173-.16.343-.313.503a3.11 3.11 0 0 1-.511.408 2.773 2.773 0 0 1-.736.359c-.26.082-.595.133-1.008.158a5.727 5.727 0 0 1-.979-.057c-.238-.051-.472-.101-.707-.154-.194-.042-.319-.082-.372-.116-.019-.013-.039-.05-.054-.101v-.057a76.87 76.87 0 0 1-.053-.711 13.96 13.96 0 0 1-.025-.478c-.007-.063-.007-.129-.01-.194.179-.013.357-.025.532-.032.197.378.325.608.384.686.125.173.264.312.411.412.151.103.328.186.531.236.203.056.423.073.661.062.206-.013.435-.069.679-.167a1.22 1.22 0 0 0 .576-.438c.14-.189.2-.391.184-.6-.02-.256-.172-.482-.448-.68-.169-.123-.607-.273-1.314-.459-.704-.187-1.192-.369-1.468-.532a1.822 1.822 0 0 1-.651-.686 1.912 1.912 0 0 1-.252-.849c-.017-.554.174-1.026.575-1.428.394-.403.993-.62 1.784-.666.175-.01.428.006.77.044.206.015.482.069.829.154h.004ZM130.667 110.059c.059.106.122.276.194.507.11.342.178.613.213.807a.836.836 0 0 1 .019.202c-.019.007-.032.019-.054.025-.132.019-.263.031-.394.051h-.066c-.24-.426-.454-.702-.641-.834a1.355 1.355 0 0 0-1.03-.249c-.347.057-.613.189-.792.397a.842.842 0 0 0-.216.701c.032.224.167.418.407.588.232.174.702.302 1.396.371.235.025.519.076.864.158.34.081.61.182.807.315.26.167.453.342.573.521.125.183.21.412.266.709.062.32.059.651-.016.984-.04.177-.125.352-.262.529a2.853 2.853 0 0 1-.467.462 2.733 2.733 0 0 1-.698.431 4.265 4.265 0 0 1-.986.261 5.227 5.227 0 0 1-.979.047c-.241-.025-.482-.054-.722-.079-.2-.022-.325-.047-.382-.079-.022-.012-.041-.044-.066-.091-.002-.022-.002-.037-.006-.059-.007-.039-.047-.271-.125-.699a15.538 15.538 0 0 1-.076-.472l-.027-.197c.178-.029.353-.054.524-.086.235.359.392.569.455.645.144.155.294.28.453.369.156.084.344.143.555.175.205.034.428.032.663-.012a2.18 2.18 0 0 0 .663-.23 1.23 1.23 0 0 0 .526-.494.9.9 0 0 0 .125-.617c-.05-.251-.219-.463-.517-.63-.184-.11-.634-.214-1.358-.32-.722-.11-1.23-.241-1.514-.377a1.82 1.82 0 0 1-.719-.617 1.8 1.8 0 0 1-.341-.819c-.073-.548.069-1.038.423-1.482.36-.441.927-.714 1.715-.847.171-.031.428-.041.773-.041.21 0 .487.022.842.073l-.002.003ZM136.414 115.565c-.032-.12-.059-.239-.088-.362.073-.037.188-.098.35-.18.232-.113.4-.214.507-.298.041-.123.038-.277-.007-.462a23.675 23.675 0 0 1-.156-.593 82.213 82.213 0 0 1-.276-1.158c-.028-.088-.05-.179-.075-.27-.141-.67-.21-1.019-.219-1.039l-.179-.669a6.795 6.795 0 0 0-.053-.278c-.059-.185-.113-.377-.169-.569-.025-.069-.044-.138-.066-.213-.015-.032-.037-.082-.078-.152-.16-.025-.407-.007-.739.056-.076.013-.14.025-.185.025-.042-.145-.081-.297-.123-.44a111.62 111.62 0 0 0 1.527-.315c.186-.044.301-.075.348-.086.206-.054.531-.16.98-.312.253-.088.406-.141.472-.167.025.062.039.116.051.158.019.059.034.135.05.222a5.163 5.163 0 0 1-.441.273 3.71 3.71 0 0 0-.413.249c.006.094.031.219.075.384.037.145.074.261.11.346.14.57.257 1.007.338 1.316.119.44.244.881.362 1.321.054.226.106.456.157.679.097.334.193.667.298 1.001.009.066.022.133.031.195.007.027.032.062.066.11.238-.022.453-.047.648-.085a6.16 6.16 0 0 1 .353-.057c.041.094.073.18.091.246.012.034.024.091.046.17-.049.012-.09.025-.115.034l-.206.073a.756.756 0 0 1-.15.025c-.053.01-.313.057-.773.135-.335.085-.672.176-1.007.259-.204.053-.489.14-.864.273-.247.081-.404.133-.478.15v.005ZM141.556 107.085c.201-.054.379-.098.529-.128.284-.057.604-.148.961-.276.128-.045.438-.165.945-.372.751-.315 1.432-.592 2.043-.836.306-.129.614-.259.92-.391.206-.086.519-.189.942-.312.085.034.156.11.198.218.141.33.281.66.422.984l.094.192c.009.022.022.051.031.091-.068.035-.141.067-.206.101-.028.01-.087.035-.178.062-.063-.054-.137-.128-.244-.229a38.3 38.3 0 0 0-.348-.254 2.536 2.536 0 0 0-.511-.305c-.093.012-.21.044-.344.098-.035.008-.144.047-.326.104-.325.1-.672.226-1.039.371a28.85 28.85 0 0 0-1.118.447c.02.082.132.409.341.962.103.278.203.549.306.822.076.204.151.409.225.613.094-.025.175-.044.238-.069a15.025 15.025 0 0 0 1.343-.561c.256-.125.413-.226.46-.295a.553.553 0 0 0 .087-.273c0-.082-.031-.343-.103-.785a.597.597 0 0 1 .062-.031c.103-.039.206-.082.306-.123.129.28.226.494.289.644.134.333.222.554.257.648.031.101.059.177.082.233.037.086.103.224.187.409.09.189.156.327.193.421.013.032.028.069.039.101-.125.054-.252.106-.379.16a18.454 18.454 0 0 1-.206-.286c-.194-.27-.333-.428-.419-.478-.066-.044-.157-.056-.269-.051-.078.013-.345.101-.798.283-.538.208-.939.372-1.201.5.034.084.049.141.061.167.142.387.27.704.377.963.125.346.254.701.379 1.053.049.123.125.192.24.199.178.012.655-.126 1.424-.428a6.93 6.93 0 0 0 1.252-.623 1.43 1.43 0 0 0 .511-.591c.156-.317.232-.705.228-1.161.105-.054.193-.101.266-.132.041-.016.098-.042.181-.074.022.089.039.152.059.214.01.051.016.104.028.158.063.327.128.654.191.988l.137.588c-.232.111-.416.192-.557.256-.204.088-.761.301-1.671.629-.632.227-1.4.515-2.293.847-.443.16-.984.378-1.628.639-.074.025-.156.05-.234.079-.223.084-.445.162-.67.248-.037-.117-.075-.226-.113-.34a3.91 3.91 0 0 1 .406-.201c.37-.17.62-.315.745-.431a.914.914 0 0 0-.062-.381c-.015-.056-.054-.152-.103-.283-.015-.051-.034-.103-.047-.15-.222-.618-.445-1.233-.663-1.85-.059-.19-.125-.372-.188-.561-.098-.258-.198-.515-.298-.773-.062-.189-.125-.371-.188-.561a42.344 42.344 0 0 0-.26-.588.382.382 0 0 0-.044-.098.256.256 0 0 0-.178-.016c-.041.009-.098.016-.166.029a3.38 3.38 0 0 0-.595.125c-.068.017-.147.039-.237.054-.032-.132-.069-.268-.103-.403h.002ZM154.554 108.649c.078-.088.198-.185.372-.295.169-.113.313-.233.436-.349-.013-.072-.022-.123-.038-.148a4.075 4.075 0 0 0-.21-.453c-.174-.347-.352-.692-.525-1.038-.088-.185-.176-.377-.264-.563a53.32 53.32 0 0 0-.225-.426l-.116-.258c-.159-.345-.313-.66-.462-.955-.323-.642-.539-1.051-.648-1.225-.106.032-.213.064-.319.094a6.365 6.365 0 0 1-.56.217c-.054-.089-.1-.18-.151-.271-.003-.022-.003-.04-.007-.056.156-.114.303-.199.441-.271.075-.039.225-.12.457-.236l.401-.17.25-.152c.2-.116.406-.233.601-.349.363-.246.757-.48 1.182-.711.661-.371 1.27-.516 1.847-.428.573.081.979.32 1.218.723.181.303.235.642.159 1.014-.073.374-.298.758-.679 1.146.072.044.168.081.281.132.244.098.445.182.61.258.489.234.986.466 1.483.692.391.182.631.283.726.295.093.013.259-.012.497-.066.185-.047.331-.066.448-.066.05.034.088.076.112.113.013.025.035.062.054.101-.047.032-.091.059-.138.088a.684.684 0 0 1-.1.069l-.288.133c-.073.041-.14.088-.216.132a3.296 3.296 0 0 0-.418.22l-.524.302a7.667 7.667 0 0 0-.347.246c-.088.063-.162.116-.216.152-.112-.064-.232-.126-.347-.189a7.943 7.943 0 0 1-.592-.337c-.316-.207-.839-.526-1.558-.969-.332-.205-.545-.308-.636-.308-.137-.01-.325.054-.575.185-.066.044-.181.107-.345.199.037.098.091.201.154.324.191.34.379.674.563 1.006.14.296.284.591.426.884.122 0 .271-.028.447-.086.297-.1.566-.172.798-.207.081.145.137.265.159.347a1.27 1.27 0 0 1-.125.062 3.533 3.533 0 0 1-.21.126c-.792.359-1.26.56-1.402.642a1.975 1.975 0 0 0-.193.1c-.241.141-.478.283-.72.422-.21.135-.41.248-.597.339-.076.037-.154.079-.232.12-.041-.076-.074-.125-.084-.147-.015-.035-.031-.086-.056-.155l.001.001Zm.83-4.202c.166-.075.288-.141.363-.182.578-.308.935-.63 1.067-.948a1.015 1.015 0 0 0-.059-.937 1.89 1.89 0 0 0-.384-.491c-.154-.136-.298-.223-.423-.254a1.426 1.426 0 0 0-.626-.007c-.166.038-.407.138-.725.307a4.93 4.93 0 0 0-.376.234c.012.034.024.063.034.095.112.207.228.409.338.616.063.13.122.258.185.384l.266.499c.072.143.162.332.276.554.022.047.044.086.066.128l-.002.002ZM116.104 108.814h-.751l.003-.648h.748v.648Zm1.292-.01-.009-.645.641-.016.016.651-.648.01Zm-3.338-.01-.653-.016.019-.651.645.02-.009.647h-.002Zm5.276-.044-.025-.649c.216-.007.426-.015.639-.025l.031.648c-.215.009-.428.019-.644.025l-.001.001Zm-7.228-.022-.648-.032.034-.647.644.031-.031.648h.001Zm9.161-.072-.041-.647c.215-.013.425-.025.638-.045l.044.648c-.213.015-.425.032-.641.044Zm-11.101-.039-.648-.046.046-.645c.213.015.429.032.642.044l-.041.647h.001Zm13.033-.106-.054-.645.639-.053.056.642-.641.056Zm-14.976-.051c-.213-.019-.431-.04-.648-.062l.066-.642c.213.022.425.037.641.062l-.059.642Zm16.902-.131-.068-.648.635-.069.073.642-.638.076-.002-.001Zm-18.839-.07-.646-.075.079-.648.638.082-.071.642v-.001Zm20.762-.163-.088-.645.638-.086.088.642-.638.089Zm-22.693-.082-.644-.094.098-.642.635.094-.088.642h-.001Zm24.607-.196-.098-.642.629-.101.103.642-.634.101Zm-26.531-.099a17.83 17.83 0 0 1-.641-.108l.106-.638.636.106-.101.64Zm28.439-.224-.112-.639.626-.113.125.635c-.213.041-.426.078-.639.116v.001Zm-30.357-.116a15.351 15.351 0 0 1-.64-.12l.127-.639.631.123-.119.635.001.001Zm32.258-.253-.125-.635c.206-.041.418-.088.626-.132l.134.635c-.213.047-.423.091-.635.132Zm-34.169-.132c-.213-.047-.423-.091-.632-.138l.14-.635c.206.051.416.094.627.138l-.135.635Zm36.065-.283-.147-.63.622-.152.152.633-.629.147.002.002Zm-37.965-.151-.63-.15.157-.63.622.151-.15.629Zm39.842-.307-.157-.63c.206-.051.411-.108.619-.164l.162.622c-.206.06-.413.12-.626.17l.002.002Zm-41.729-.17c-.21-.057-.419-.113-.626-.173l.172-.623c.206.057.413.111.622.168l-.17.629.002-.001Zm43.603-.341-.179-.623c.204-.057.41-.123.614-.179l.184.622c-.206.06-.413.116-.619.18Zm-45.477-.188c-.21-.059-.416-.126-.62-.182l.185-.623c.203.057.41.123.616.182l-.181.623Zm47.332-.365-.191-.622c.206-.064.406-.126.61-.195l.197.623c-.203.062-.41.131-.616.194Zm-49.191-.211c-.21-.066-.413-.135-.62-.204l.204-.617c.203.069.406.138.61.201l-.194.62Zm51.031-.396-.206-.61c.203-.072.406-.141.607-.214l.217.614c-.206.072-.411.138-.617.21h-.001Zm-52.877-.228-.613-.219.215-.608c.206.069.407.145.607.214l-.21.613h.001Zm54.704-.424-.218-.603.597-.23.232.607c-.206.076-.41.15-.609.226h-.002Zm-56.534-.248c-.2-.073-.4-.155-.604-.233l.235-.608c.197.082.4.157.597.236l-.228.605Zm58.347-.45-.242-.604c.201-.078.397-.157.592-.238l.247.597c-.2.086-.398.165-.597.246v-.001Zm-60.16-.271-.597-.246.25-.604c.198.088.394.17.595.251l-.247.598v.001Zm61.949-.477-.257-.593.591-.258.256.591-.59.258v.002Zm-63.735-.29c-.203-.085-.397-.17-.594-.264l.266-.592c.197.088.392.179.588.265l-.26.591Zm65.506-.504-.272-.588.58-.274.278.588c-.193.091-.391.187-.585.274h-.001Zm-67.277-.308-.585-.283.282-.586c.193.096.387.19.582.281l-.279.588Zm69.026-.534-.291-.579c.191-.094.382-.195.576-.288l.288.578c-.188.098-.382.195-.573.29v-.001Zm-70.771-.332c-.194-.098-.385-.199-.575-.299l.296-.579.57.302-.291.576Zm72.492-.556-.301-.579a9.63 9.63 0 0 0 .563-.302l.31.573c-.188.103-.381.204-.572.31v-.002Zm-74.217-.36c-.188-.1-.379-.206-.57-.307l.316-.573c.191.106.375.214.563.315l-.31.566h.001Zm75.919-.58-.32-.564.558-.32.323.56c-.182.112-.372.213-.561.324Zm-77.614-.379c-.184-.107-.37-.218-.558-.33l.328-.556c.188.11.37.217.558.33l-.328.556Zm79.292-.607-.337-.558c.185-.11.366-.222.547-.337l.341.548c-.188.12-.372.234-.551.347Zm-80.958-.396c-.184-.114-.37-.23-.55-.347l.347-.55c.178.115.36.228.54.346l-.337.55Zm82.603-.642-.354-.541.535-.352.357.54c-.181.12-.359.24-.538.353Zm-84.242-.416c-.179-.123-.36-.239-.541-.364l.366-.536c.176.12.353.239.532.359l-.357.541Zm85.854-.662-.362-.532c.171-.123.35-.246.523-.371l.372.534a131.6 131.6 0 0 1-.531.368h-.002Zm-87.46-.438c-.175-.126-.354-.249-.528-.377l.379-.529c.171.126.344.251.519.374l-.37.532Zm89.046-.692-.382-.522c.172-.125.345-.254.517-.384l.384.522c-.172.129-.347.258-.519.384Zm-90.622-.457c-.169-.128-.344-.26-.513-.396l.391-.512c.169.125.338.258.51.386l-.39.522h.002Zm92.174-.714-.397-.515c.169-.132.335-.267.504-.396l.401.507c-.172.135-.338.268-.507.406l-.001-.002Zm-93.71-.484a23.186 23.186 0 0 1-.507-.406l.407-.504.5.403-.4.507Zm95.224-.736-.41-.504c.162-.138.328-.276.491-.411l.413.494-.494.421Zm-96.729-.5c-.166-.142-.328-.28-.492-.425l.423-.49c.16.145.323.283.485.42l-.416.495Zm98.113-.378-.003-.648.642-.006.012.65-.651.004Zm-99.681-.01-.648-.012.012-.648.645.013-.01.647Zm101.621-.025-.016-.644.641-.016.019.642-.644.02v-.002Zm-103.564-.022-.65-.022.024-.644.644.022-.02.644h.002Zm105.5-.041-.031-.648.641-.024.032.647-.642.025Zm-107.447-.035-.648-.031.034-.652.646.034-.032.648v.001Zm109.375-.059-.038-.649.645-.037.037.647-.644.039Zm-111.314-.044-.648-.044.044-.648.644.044-.041.648h.001Zm113.245-.079-.047-.645.638-.05.05.647-.641.047v.001Zm-115.189-.06-.644-.056.05-.638.648.047-.054.648Zm117.116-.095-.056-.642.639-.059.059.645-.642.056Zm-119.05-.071-.647-.06.063-.647.641.063-.056.645v-.001Zm120.974-.107-.069-.644.642-.07.068.645-.641.07ZM54.138 90.78l-.648-.076.078-.642.639.072-.069.645Zm124.829-.126-.078-.642.641-.078.081.644-.644.075v.001ZM52.21 90.55l-.644-.079.091-.645.632.086-.078.638Zm128.681-.142-.088-.642.636-.089.093.642-.641.088ZM50.29 90.293l-.642-.093.094-.642.638.09-.09.645Zm132.519-.163-.098-.641.639-.101.1.642-.641.1ZM48.369 90l-.636-.104.106-.639.631.1-.103.643h.002Zm136.358-.177-.11-.642.632-.113.112.642-.635.113h.001ZM46.456 89.68l-.636-.116.116-.64.631.114-.112.642h.001Zm140.177-.202-.116-.642.629-.116.125.635-.638.123Zm-142.079-.162-.635-.122.125-.642.631.125-.122.638.001.002Zm143.985-.219-.129-.632.626-.133.134.63-.631.135Zm-145.888-.173a26.244 26.244 0 0 1-.635-.138l.144-.63c.203.045.416.09.626.14l-.135.63v-.002Zm147.784-.236-.144-.632.628-.145.145.63-.629.147Zm-149.68-.186-.626-.155.151-.63.626.149-.15.635v.001Zm151.569-.261-.156-.632.623-.155.159.626-.626.16v.001Zm-153.453-.204c-.21-.057-.416-.11-.626-.165l.163-.63c.206.058.417.107.623.165l-.16.63Zm155.331-.28-.166-.63.626-.167.167.63c-.206.05-.416.106-.627.166Zm-157.208-.217-.622-.176.179-.622.616.17-.171.63-.002-.002Zm159.083-.305-.179-.62c.203-.064.411-.12.614-.183l.185.623c-.21.062-.413.123-.619.18h-.001ZM35.132 87l-.623-.185.19-.622.615.185-.182.622Zm162.8-.323-.188-.62.609-.192.198.62-.619.192Zm-164.655-.252c-.206-.063-.413-.133-.616-.2l.203-.62c.2.07.407.139.61.202l-.198.618h.001Zm166.504-.347-.203-.61.607-.207.209.61c-.204.069-.407.145-.614.207h.001Zm-168.348-.264-.61-.214.214-.613.607.21-.21.617Zm170.181-.371-.213-.61c.198-.076.397-.145.602-.217l.222.607c-.2.074-.406.148-.609.22h-.002ZM29.6 85.157l-.6-.226.226-.608.604.227-.228.607H29.6Zm173.836-.386-.229-.61c.198-.075.401-.158.597-.234l.238.605c-.203.079-.404.157-.607.239h.001Zm-175.644-.308c-.203-.083-.404-.16-.601-.246l.241-.598c.197.082.397.16.595.239l-.235.605Zm177.448-.416-.244-.602c.194-.084.394-.16.59-.248l.254.597c-.203.085-.4.17-.601.253h.001ZM25.992 83.72l-.595-.254.253-.596.595.256-.254.594h.001Zm181.036-.44-.259-.593.587-.264.267.593c-.201.088-.394.179-.595.263Zm-182.815-.34a37.567 37.567 0 0 0-.588-.271l.272-.592c.196.088.391.18.582.27l-.267.593Zm184.582-.468-.274-.586c.193-.098.384-.186.578-.28l.281.585c-.197.094-.391.183-.585.28ZM22.454 82.1c-.194-.09-.385-.188-.576-.282l.285-.579c.19.096.384.187.575.284l-.284.578Zm188.088-.49-.291-.578c.193-.094.381-.194.572-.295l.294.578c-.188.094-.384.195-.575.296Zm-189.821-.383-.573-.3.304-.574.567.302-.298.573v-.001Zm191.544-.522-.31-.573c.188-.1.376-.207.56-.308l.313.566c-.185.104-.376.212-.563.315Zm-193.256-.41a23.384 23.384 0 0 1-.563-.322l.322-.56c.186.106.37.214.558.317l-.316.564-.001.001Zm194.946-.55-.325-.56c.187-.106.369-.217.557-.324l.326.553c-.182.113-.37.22-.558.332Zm-196.63-.429c-.181-.11-.37-.223-.55-.34l.34-.553c.179.116.364.23.545.337l-.335.556Zm198.294-.584-.341-.548.541-.346.344.546c-.178.116-.36.231-.544.347v.001Zm-199.94-.45-.545-.359.36-.54c.178.12.353.238.535.354l-.35.544v.001Zm201.57-.617-.36-.534.526-.369.37.532c-.179.125-.36.251-.536.371Zm-203.185-.478c-.175-.125-.354-.248-.526-.378l.375-.526c.172.123.348.249.523.371l-.372.532v.001Zm204.775-.648-.381-.524c.171-.13.344-.258.513-.386l.389.516c-.172.133-.348.261-.521.394Zm-206.344-.507c-.172-.133-.345-.264-.514-.4l.397-.508.507.393-.392.516.002-.001Zm207.89-.686-.403-.507c.166-.133.332-.27.497-.403l.413.5-.507.408v.002Zm-209.418-.532c-.167-.138-.329-.283-.492-.42l.416-.495c.162.14.328.28.492.418l-.416.497Zm210.914-.723-.426-.49c.162-.138.318-.283.475-.425l.435.481-.484.434Zm-212.38-.566a15.95 15.95 0 0 1-.476-.44l.44-.473c.157.148.314.29.47.44l-.435.473Zm213.813-.761-.448-.465c.16-.15.307-.298.458-.45l.457.46a22.9 22.9 0 0 1-.466.456l-.001-.001ZM8.091 72.173c-.153-.158-.303-.308-.454-.466l.467-.447c.147.15.294.303.447.456l-.46.457Zm216.591-.805-.47-.44c.15-.158.291-.318.428-.473l.482.431c-.144.16-.288.325-.44.482ZM6.755 70.744a22.341 22.341 0 0 1-.428-.49l.492-.421c.134.16.274.32.418.477l-.482.434Zm219.221-.85-.497-.415c.138-.164.272-.327.401-.494l.51.406c-.138.17-.272.34-.414.502v.002ZM5.5 69.24c-.134-.176-.269-.346-.4-.519l.513-.39c.128.17.26.34.394.506l-.507.403Zm221.682-.886-.523-.39c.125-.17.25-.347.369-.517l.532.371-.379.536h.001ZM4.336 67.661c-.122-.182-.244-.362-.36-.545l.539-.355c.115.18.232.352.357.531l-.536.369Zm223.947-.937-.544-.347c.113-.18.223-.362.335-.541l.551.333c-.113.182-.225.371-.342.553v.002ZM3.286 66.007c-.113-.192-.223-.377-.328-.57l.563-.318c.103.19.212.372.318.554l-.553.334Zm225.983-.976-.57-.308c.103-.192.201-.378.291-.57l.578.293c-.096.192-.196.386-.3.585h.001Zm-226.92-.755c-.093-.198-.188-.396-.281-.598l.585-.265c.093.19.181.384.274.573l-.58.288.002.002Zm227.777-1.019-.592-.265c.085-.192.169-.39.247-.585l.597.245c-.082.202-.168.403-.254.605h.002Zm-228.57-.78c-.079-.207-.157-.409-.228-.617l.6-.225c.075.203.15.4.228.602l-.602.238.002.002Zm229.28-1.058-.61-.207c.069-.204.135-.406.194-.609l.619.194c-.066.21-.135.415-.203.622ZM.91 60.612c-.063-.207-.12-.421-.18-.633l.625-.17c.056.208.113.412.176.616l-.62.187Zm230.476-1.081-.626-.156c.054-.205.1-.413.142-.623l.631.138c-.044.214-.095.428-.147.64ZM.431 58.7a24.176 24.176 0 0 1-.122-.648l.636-.113c.037.207.078.421.12.63l-.632.132L.43 58.7Zm231.338-1.102-.635-.098c.031-.211.059-.421.085-.635l.641.078a36.6 36.6 0 0 1-.091.655ZM.125 56.75a21.471 21.471 0 0 1-.06-.654l.642-.053c.015.212.034.426.056.631l-.638.076Zm231.848-1.115-.644-.038c.015-.214.022-.425.027-.64l.644.02c-.003.22-.012.441-.027.658ZM.003 54.777C0 54.653 0 54.53 0 54.406v-.283l.644.01-.003.273c0 .119.003.243.007.363l-.644.008H.003Zm231.346-1.094a10.415 10.415 0 0 0-.031-.638l.644-.04c.016.215.024.436.034.654l-.648.024h.001ZM.702 52.856l-.646-.05c.015-.218.035-.438.06-.652l.64.067c-.021.21-.04.425-.056.635h.002Zm230.493-1.08a13.955 13.955 0 0 0-.09-.63l.638-.103c.035.217.063.436.095.653l-.641.08h-.002ZM.93 50.956l-.636-.104c.037-.22.078-.432.12-.646l.63.127c-.04.207-.077.416-.114.623Zm229.937-1.063a19.967 19.967 0 0 0-.144-.623l.622-.161c.054.214.103.428.154.64l-.632.145v-.001ZM1.333 49.09l-.626-.167c.056-.214.115-.421.176-.634l.622.184c-.063.201-.12.408-.172.617Zm229.037-1.05a23.822 23.822 0 0 0-.196-.606l.607-.214c.072.208.141.416.206.623l-.617.196v.002Zm-228.474-.78-.607-.219c.079-.204.154-.413.232-.613l.6.236a24.06 24.06 0 0 0-.225.596Zm227.823-1.018c-.085-.195-.166-.393-.256-.589l.59-.263.264.606-.598.247v-.001ZM2.613 45.487l-.582-.27c.09-.196.181-.396.274-.595l.583.284a55.57 55.57 0 0 0-.276.58v.001Zm226.302-.983c-.094-.19-.194-.376-.294-.567l.563-.308c.106.192.206.388.306.579l-.575.297Zm-225.438-.73-.563-.317c.103-.187.212-.381.318-.565l.558.326c-.106.186-.213.372-.313.556Zm224.505-.946c-.105-.179-.222-.363-.337-.542l.541-.352c.119.186.237.37.344.556l-.548.338ZM4.462 42.13l-.54-.358c.119-.18.241-.363.362-.542l.531.363c-.122.18-.24.356-.353.537Zm222.469-.904a80.734 80.734 0 0 0-.372-.52l.519-.386c.127.177.252.352.384.53l-.533.376h.002ZM5.56 40.552l-.517-.385c.128-.177.26-.35.394-.522l.51.402c-.135.17-.263.336-.389.506l.002-.001Zm220.22-.862a41.546 41.546 0 0 0-.411-.495l.498-.416c.14.167.278.336.413.503l-.501.408h.001ZM6.755 39.05l-.491-.42c.137-.162.281-.329.426-.494l.484.43c-.144.16-.281.324-.419.484Zm217.776-.822c-.14-.158-.287-.315-.436-.47l.473-.444c.147.156.291.316.438.478l-.477.436h.002ZM8.038 37.624l-.47-.448c.15-.158.301-.317.453-.473l.46.455c-.15.156-.3.308-.444.464v.002Zm215.163-.782c-.146-.153-.303-.3-.457-.45l.448-.467c.156.151.313.302.463.456l-.455.461h.001Zm-213.805-.58-.445-.47c.156-.15.316-.301.475-.444l.438.475a20.99 20.99 0 0 0-.47.44h.002Zm212.41-.74c-.156-.145-.318-.285-.477-.428l.425-.488c.162.143.326.288.485.432l-.431.484h-.002ZM10.82 34.97l-.42-.493c.16-.142.33-.283.498-.42l.41.496c-.166.138-.325.278-.487.417h-.001Zm209.528-.705-.497-.404.397-.508c.172.136.341.271.509.408l-.41.504h.001Zm-208.045-.52-.397-.512c.166-.134.338-.266.51-.396l.395.514c-.172.13-.34.262-.507.395l-.001-.002Zm206.531-.67-.512-.383.381-.522.523.387-.391.518h-.001Zm-204.998-.493-.376-.526c.172-.127.347-.253.526-.381l.372.531c-.176.124-.35.25-.523.374l.001.002Zm203.439-.638-.528-.362.362-.537.536.366-.37.531v.002Zm-201.861-.465-.354-.54c.175-.12.354-.239.538-.36l.353.543c-.181.116-.36.235-.538.355v.002Zm200.259-.602a31.936 31.936 0 0 0-.541-.343l.345-.55c.181.114.366.233.543.347l-.347.546Zm-198.642-.444-.337-.552.553-.34.332.556c-.185.111-.366.223-.548.336Zm197.005-.571c-.181-.11-.366-.215-.55-.326l.322-.562.558.329-.328.559h-.002Zm-195.353-.42-.323-.562c.189-.106.377-.216.564-.323l.318.566c-.188.105-.376.213-.56.318l.001.001Zm193.685-.54-.563-.309.306-.57.57.31-.313.567v.001Zm-192.001-.397-.304-.572.57-.308.3.578-.566.302Zm190.303-.514c-.191-.098-.382-.194-.57-.294l.284-.577c.198.097.389.196.579.296l-.293.575Zm-188.595-.378-.289-.578c.191-.097.389-.192.582-.289l.285.584c-.194.093-.385.188-.58.283h.002Zm186.867-.483c-.191-.093-.384-.184-.578-.276l.272-.587c.196.091.394.184.588.279l-.282.585v-.001Zm-185.13-.356-.272-.59c.193-.09.388-.18.589-.27l.262.589c-.194.088-.389.18-.58.27Zm183.385-.462c-.194-.085-.388-.175-.585-.26l.26-.594c.197.088.394.175.589.265l-.263.59h-.001Zm-181.63-.334-.259-.595.598-.258.252.598c-.203.084-.397.17-.592.254l.002.001Zm179.862-.434c-.198-.082-.392-.166-.592-.246l.244-.6c.201.08.4.165.597.248l-.249.598Zm-178.087-.318-.245-.6.604-.244.238.602c-.2.08-.401.16-.597.24v.002Zm176.303-.407-.601-.234.232-.606.604.236-.235.602v.002Zm-174.51-.301-.225-.605.604-.23.225.608c-.203.078-.404.155-.604.227Zm172.704-.384-.601-.217.217-.611.607.222-.223.607v-.001Zm-170.896-.279-.213-.613c.204-.07.407-.143.61-.214l.213.613c-.203.07-.41.14-.61.214Zm169.083-.362c-.204-.069-.407-.138-.61-.205l.203-.616.614.206-.206.615h-.001Zm-167.26-.263-.2-.617c.206-.068.413-.134.617-.2l.197.616-.613.2Zm165.425-.339c-.203-.066-.406-.128-.609-.191l.188-.62c.203.065.41.128.616.193l-.193.618h-.002Zm-163.584-.245-.191-.622c.206-.065.413-.125.619-.189l.188.621c-.206.061-.413.125-.617.19Zm161.739-.318-.614-.18.174-.623.62.182-.182.621h.002Zm-159.89-.23-.176-.624.622-.174.17.624-.617.174h.001Zm158.038-.297-.622-.167.166-.626.626.169-.169.624h-.001ZM38.318 21.59l-.163-.63.621-.16.16.628-.62.163.002-.002Zm154.31-.277-.627-.154.154-.631.626.156-.152.63h-.001Zm-152.443-.198-.15-.629.63-.154.144.632-.624.15Zm150.566-.253-.627-.145.141-.632.628.143-.144.634h.002Zm-148.685-.184-.141-.633.632-.14.137.635-.629.138h.001Zm146.801-.236-.629-.13.132-.636.629.134-.132.632ZM43.95 20.274l-.128-.634.632-.128.128.635-.632.127Zm143.027-.214-.628-.122.116-.636.639.121-.125.637h-.002Zm-141.133-.156-.116-.637.639-.116.11.64-.632.114-.001-.001Zm139.233-.195c-.206-.036-.419-.073-.629-.106l.106-.642.638.11-.115.64v-.002Zm-137.334-.138-.103-.642.635-.103.103.64-.635.105Zm135.435-.178-.636-.1.094-.64.641.1-.1.64h.001Zm-133.53-.126-.093-.642.639-.093.093.642-.639.093Zm131.622-.158-.636-.089.081-.642.645.087-.09.644Zm-129.71-.112-.086-.645.639-.083.081.645-.636.083h.002Zm127.798-.142-.638-.078.075-.643.644.077-.081.644Zm-125.887-.1-.071-.643.64-.073.07.644-.639.072Zm123.972-.12-.641-.066.061-.646.649.067-.069.645Zm-122.054-.087-.063-.645.638-.063.066.645-.64.063Zm120.133-.103-.644-.058.059-.645.641.056-.056.647ZM57.304 18.37l-.053-.645.639-.054.053.648-.639.05v.001Zm116.29-.086-.644-.047.044-.648.644.047-.044.647v.001Zm-114.371-.06-.044-.646.641-.043.041.649-.638.041v-.001Zm112.441-.07-.648-.037.038-.647.651.037-.041.646Zm-110.523-.046-.032-.646.642-.034.027.648-.639.032h.002Zm108.589-.056-.643-.024.024-.65.648.028-.027.646h-.002Zm-106.665-.031-.025-.648.645-.022.02.648-.64.022Zm104.731-.038-.644-.018.015-.646.648.015-.019.65ZM64.99 17.964l-.016-.65.644-.013.01.648-.638.014v.001Zm100.873-.022-.649-.008.01-.646.648.006-.009.648Zm-98.946-.007v-.464l-.093-.105c.132-.116.27-.229.4-.346l.42.495-.401.341-.088.078h-.238v.001Zm97.052-.754a45.812 45.812 0 0 0-.494-.408l.406-.504c.169.138.335.276.501.415l-.413.497Zm-95.344-.488-.403-.504c.169-.137.335-.272.504-.406l.403.505-.504.405Zm93.846-.727a19.706 19.706 0 0 0-.507-.396l.392-.515c.171.133.344.264.516.4l-.401.51v.001Zm-92.331-.472-.394-.515c.176-.132.345-.262.516-.392l.389.518c-.172.128-.345.26-.511.388v.001Zm90.8-.7c-.174-.13-.347-.255-.519-.38l.379-.527c.172.126.347.257.523.384l-.381.522-.002.001Zm-89.258-.45-.375-.529a35.8 35.8 0 0 1 .529-.375l.369.53c-.174.123-.347.247-.523.374Zm87.69-.675-.529-.367.363-.537.535.37-.369.533v.001Zm-86.11-.432-.362-.539c.178-.121.357-.24.535-.36l.357.54c-.178.117-.354.238-.528.359h-.002Zm84.512-.648c-.179-.121-.36-.236-.538-.35l.344-.547c.182.116.367.233.548.352l-.353.545h-.001Zm-82.903-.414-.347-.545c.179-.116.362-.233.548-.347l.338.551c-.182.115-.363.228-.539.341Zm81.273-.622c-.185-.112-.367-.225-.548-.334l.328-.558c.188.113.372.225.558.34l-.338.552Zm-79.643-.391-.325-.556.553-.33.328.56-.557.327.001-.001Zm77.984-.598c-.185-.109-.372-.214-.557-.319l.316-.564c.188.106.376.212.563.32l-.323.563h.001Zm-76.313-.367-.32-.566c.191-.105.38-.213.563-.315l.313.568c-.188.103-.372.207-.556.313Zm74.627-.574a55.983 55.983 0 0 0-.563-.303l.298-.574c.194.1.382.203.576.305l-.311.572Zm-72.943-.348-.294-.575.572-.298.294.577c-.193.1-.382.195-.572.296Zm71.231-.546a23.335 23.335 0 0 0-.572-.285l.284-.584c.193.098.388.193.582.29l-.294.58Zm-69.51-.327-.285-.582c.19-.094.384-.191.58-.283l.278.585c-.194.092-.384.186-.573.28Zm67.78-.519a47.05 47.05 0 0 0-.582-.272l.266-.59c.198.092.392.181.589.274l-.272.588h-.001ZM83.31 7.577l-.266-.589c.194-.09.391-.18.588-.269l.262.591c-.194.09-.392.178-.585.267h.001Zm64.288-.495c-.193-.087-.394-.17-.588-.256l.253-.597c.198.087.397.171.595.26l-.26.593Zm-62.53-.285-.25-.598c.198-.086.397-.169.594-.25l.247.596-.591.252Zm60.753-.467c-.2-.082-.396-.162-.597-.239l.238-.605c.2.08.401.16.601.243l-.242.6Zm-58.972-.264-.238-.603c.2-.079.401-.159.6-.235l.232.606c-.198.076-.4.155-.594.234v-.002Zm57.176-.44c-.2-.078-.406-.15-.604-.225l.223-.61.607.227-.226.608Zm-55.38-.245-.223-.61c.2-.076.407-.147.61-.218l.215.609c-.203.072-.406.146-.604.22h.002Zm53.565-.414-.609-.21.203-.615.616.21-.21.614v.001Zm-51.75-.225-.206-.617c.206-.066.409-.135.614-.201l.2.615-.607.203h-.001Zm49.917-.385a26.734 26.734 0 0 0-.613-.193l.188-.619c.206.064.416.127.619.194l-.194.618Zm-48.09-.204-.19-.62c.205-.065.413-.127.619-.19l.18.622c-.202.06-.406.123-.609.188Zm46.243-.36a47.12 47.12 0 0 0-.619-.176l.176-.625c.206.058.413.12.622.18l-.179.62Zm-44.4-.184-.172-.626c.206-.056.416-.114.62-.172l.171.628c-.21.057-.416.113-.62.171V3.61Zm42.539-.33c-.206-.055-.416-.11-.622-.16l.153-.63c.216.053.423.106.632.162l-.163.628Zm-40.68-.167-.16-.63c.21-.054.42-.105.627-.157l.154.63c-.21.053-.414.103-.62.157Zm38.805-.303-.626-.146.14-.632c.213.048.423.098.636.147l-.15.631Zm-36.94-.149-.142-.63c.21-.049.423-.097.632-.143l.134.632-.626.14.002.001Zm35.057-.272-.632-.132.125-.635c.217.044.426.088.638.134l-.131.633Zm-33.176-.132-.125-.635.629-.126.125.637c-.21.04-.42.082-.63.124Zm31.277-.242c-.21-.04-.419-.078-.629-.119l.11-.636c.212.037.428.077.638.115l-.119.64Zm-29.391-.117-.11-.64c.211-.037.423-.074.636-.108l.106.639c-.21.034-.423.07-.632.109Zm27.492-.214a75.794 75.794 0 0 0-.639-.1l.098-.642.644.1-.103.642Zm-25.595-.098-.094-.642c.21-.033.423-.065.636-.094l.093.642-.635.094ZM127.2 1.4a46.02 46.02 0 0 0-.638-.086l.081-.645c.212.03.428.057.644.086l-.088.645h.001Zm-21.778-.082-.088-.643.645-.079.076.644-.632.078h-.001Zm19.864-.156-.641-.069.066-.646.644.07-.069.645Zm-17.958-.066-.066-.645c.215-.023.428-.045.641-.063l.059.643c-.213.02-.423.043-.636.065h.002ZM123.364.97l-.646-.055.051-.646c.218.017.431.035.648.054l-.053.649V.97ZM109.243.92l-.053-.648c.212-.017.432-.033.641-.048l.047.646c-.213.016-.426.031-.636.05h.001Zm12.194-.097a57.537 57.537 0 0 0-.644-.038l.035-.65.65.04-.041.648ZM111.159.787l-.037-.648c.215-.01.428-.023.641-.033l.034.646c-.213.013-.426.022-.638.035Zm8.344-.066c-.213-.009-.426-.017-.642-.024l.022-.65c.216.008.436.015.648.026l-.027.646-.001.002Zm-6.43-.023-.02-.65c.213-.007.429-.012.644-.02l.015.648-.641.021.002.001Zm4.502-.034c-.216-.007-.431-.01-.648-.011l.009-.649c.216.001.432.004.651.01l-.012.65ZM115 .654l-.009-.649.648-.006v.648c-.213.002-.426.002-.639.007Z"></path><path fill-rule="evenodd" clip-rule="evenodd" d="M96.52 89.2a2.216 2.216 0 0 0-.898-.586 2.191 2.191 0 0 0-.707-.145 1.89 1.89 0 0 0-.069.155c-.07.211-.146.416-.222.623-.069.179-.134.361-.2.538l-.167.465-.137.347c-.066.194-.137.39-.203.581-.054.116-.1.233-.147.356-.125.33-.141.586-.05.755.138.246.385.434.74.56.269.099.479.146.619.139.303 0 .553-.05.76-.153.206-.101.401-.28.576-.539.171-.26.306-.54.406-.849.16-.497.206-.932.144-1.306a1.841 1.841 0 0 0-.445-.94V89.2ZM114.578 50.648c.406 0 1.361-.38 2.278-2.64.81-1.974 1.351-4.937 1.351-6.4 0-1.237-.592-1.802-1.282-1.802-.245 0-.583.122-.97.538-.206.229-.526.623-1.12 2.19-.917 2.46-1.339 5.172-1.339 6.456 0 1.284.475 1.658 1.082 1.658ZM135.812 67.146c0-.928-.57-1.542-1.248-1.542-.397 0-1.055.249-1.803 1.328-.482.683-1.346 2.379-2.002 4.713 3.382-.358 5.053-3.077 5.053-4.499ZM134.976 91.044a.81.81 0 0 0 .125-.359 1.267 1.267 0 0 0-.072-.529c-.081-.258-.213-.44-.391-.535a.712.712 0 0 0-.573-.044c-.2.063-.35.179-.454.349a.66.66 0 0 0-.066.538.674.674 0 0 0 .21.332c.1.084.25.154.445.21.093.033.331.075.726.139.015-.035.035-.07.05-.1ZM135.727 92.418c-.14-.098-.369-.185-.688-.254-.318-.07-.494-.101-.526-.091-.041.012-.105.106-.197.285-.116.243-.139.511-.054.79.088.298.244.512.463.632.225.12.463.14.707.067.257-.086.441-.214.544-.394.103-.175.119-.38.046-.607a.828.828 0 0 0-.298-.428h.003Z"></path><path fill-rule="evenodd" clip-rule="evenodd" d="M164.145 19.83C152.18 9.216 135.349 2.543 116.006 2.543c-19.344 0-36.175 6.673-48.142 17.285-36.082 0-65.335 15.486-65.335 34.578C2.53 73.5 31.782 88.98 67.864 88.98c11.968 10.678 28.727 17.292 48.142 17.292 19.415 0 36.174-6.613 48.139-17.292 36.077 0 65.334-15.486 65.334-34.573 0-19.086-29.256-34.578-65.334-34.578Zm24.118 60.53c-7.367 1.643-15.517 2.566-24.119 2.566h-2.288l-1.702 1.53c-10.793 9.63-26.112 15.769-44.147 15.769s-33.365-6.138-44.147-15.77l-1.708-1.529h-2.287c-8.598 0-16.756-.925-24.125-2.566C20.391 75.13 8.545 63.848 8.545 54.407c0-9.44 11.846-20.729 35.195-25.954 7.37-1.646 15.527-2.572 24.125-2.572h2.275l1.708-1.514c10.795-9.58 26.187-15.774 44.16-15.774 17.974 0 33.356 6.193 44.156 15.774l1.703 1.514h2.278c8.602 0 16.753.926 24.119 2.572 23.354 5.225 35.198 16.506 35.198 25.954 0 9.45-11.844 20.725-35.198 25.953h-.001Z"></path><path fill-rule="evenodd" clip-rule="evenodd" d="M187.893 30.137c-7.243-1.622-15.272-2.53-23.75-2.53h-2.928l-2.197-1.942c-10.455-9.298-25.442-15.341-43.011-15.341-17.57 0-32.56 6.043-43.03 15.341l-2.185 1.943h-2.929c-8.473 0-16.508.907-23.75 2.529-23.31 5.216-33.852 16.204-33.852 24.27 0 8.065 10.542 19.046 33.853 24.263 7.24 1.626 15.275 2.532 23.75 2.532h2.938l2.192 1.963c10.45 9.334 25.351 15.329 43.011 15.329 17.661 0 32.532-6.01 42.996-15.329l2.21-1.963h2.931c8.477 0 16.506-.906 23.75-2.532 23.302-5.216 33.85-16.2 33.85-24.264s-10.548-19.053-33.85-24.27h.001Zm-61.559 9.234c-.054-.023-.37-.124-1.195-.096l.284-1.146c2.838.07 4.086-.087 5.28-.329l-.57 3.163a8.093 8.093 0 0 1 1.314-1.647c.707-.686 1.458-1.268 2.434-1.268 1.627 0 2.266 1.622 2.284 2.988a10.803 10.803 0 0 1 1.837-2.004c1.052-.857 1.768-1.059 2.405-1.059 1.148 0 2.116 1.042 2.116 2.752 0 .564-.029.922-.288 1.942l-1.549 6.033c-.147.62-.159.808-.159.903 0 .371.191.588.45.588.094 0 .194-.01.448-.257.259-.258.741-.902 1.198-1.92l.714.392c-.508 1.236-1.276 2.292-1.827 2.797-.71.646-1.377.866-1.977.866-1.143 0-2.019-.888-2.019-2.705 0-.335.103-1.268.326-2.123l1.37-5.277c.222-.98.284-1.297.284-1.612 0-.419-.191-.613-.469-.613-.157 0-.942.167-2.237 2.022-.632.921-1.111 1.939-1.558 3.703l-1.693 6.56-3.205-.002 2.437-9.49c.272-1.041.341-1.75.341-1.981 0-.41-.213-.641-.485-.641-.128 0-.32.039-.661.287-.394.289-1.057.976-1.543 1.713-.519.787-1.311 2.475-1.808 4.435l-1.456 5.678h-3.147l2.753-10.737c.142-.53.16-.788.16-.969 0-.455-.194-.788-.592-.948l.003.002Zm4.33 36.967c.353.532.726.78 1.478.78.675 0 1.874-.308 3.948-2.787l.798.932c-.822 1.1-1.862 2.064-2.499 2.492-1.093.73-2.116 1.019-2.994 1.019-1.023 0-1.96-.375-2.589-.919-.822-.71-1.576-2.007-1.576-3.862 0-2.168.807-4.689 2.185-6.488 1.58-2.051 3.76-3.052 5.091-3.052 1.451 0 3.254 1 3.254 3.303 0 1.001-.428 2.162-1.465 3.122-.695.647-2.121 1.538-5.776 1.808-.21.985-.267 1.69-.267 2.086 0 .667.162 1.19.414 1.567h-.002Zm-17.77-36.33c.232-.308 1.38-2.122 3.273-2.122 1.295 0 2.337.831 2.76 2.053l.46-1.799h3.335l-2.556 10.027c-.188.73-.241 1.284-.241 1.375 0 .43.175.591.388.591.131 0 .259-.037.55-.404.247-.323.673-1.001 1.155-2.17l.704.438c-.497 1.233-.87 1.911-1.079 2.241-.55.875-1.214 1.47-1.517 1.647-.428.257-.798.354-1.163.354-.932 0-1.818-.675-2.191-1.756-.833 1.118-1.978 1.671-2.932 1.671-1.771 0-3.486-1.73-3.486-4.794 0-2.052.923-5.154 2.54-7.352Zm-9.893 7.797 1.705-6.648c.125-.463.142-.688.142-.786 0-.363-.142-.678-.313-.834-.11-.103-.413-.273-1.099-.247l.279-1.114c.401.023.795.041 1.192.041 1.451 0 2.662-.15 3.883-.441l-2.775 10.9c-.257.916-.257 1.144-.257 1.245 0 .47.201.632.423.632.094 0 .253-.037.536-.325.247-.242.751-.89 1.216-1.78l.698.363c-1.38 2.84-2.919 3.577-3.993 3.577-1.155 0-1.943-.997-1.943-2.46 0-.493.073-1.182.306-2.124v.002Zm3.21 28.867c.125 0 .26-.038.551-.4.247-.327.676-1.001 1.155-2.18l.71.446c-.497 1.23-.874 1.91-1.082 2.24-.551.869-1.218 1.47-1.527 1.646-.423.256-.795.352-1.167.352-.93 0-1.821-.67-2.193-1.752-.839 1.114-1.984 1.678-2.944 1.678-1.771 0-3.492-1.737-3.492-4.802 0-2.052.927-5.154 2.55-7.353.232-.308 1.387-2.12 3.286-2.12 1.302 0 2.344.833 2.767 2.051l.462-1.793h3.342l-2.566 10.023c-.188.723-.242 1.284-.242 1.375 0 .425.172.588.392.588l-.002.001Zm-11.28-29.294 3.356-13.312c.128-.515.145-.621.145-.867 0-.08-.022-.505-.385-.788-.103-.08-.45-.24-1-.2l.297-1.152c.416.032.835.043 1.258.043 1.123 0 2.4-.122 3.768-.4l-4.41 17.42c-.356 1.362-.369 1.774-.369 1.826 0 .35.194.572.463.572.13 0 .372-.061.776-.522.228-.26.589-.686 1.521-2.498l.776.318c-.541 1.234-1.214 2.315-1.698 2.924-.754.935-1.612 1.62-2.78 1.62-1.167 0-2.072-.921-2.072-2.79 0-.275.047-.966.355-2.192l-.002-.002Zm-7.98 0 3.358-13.312c.124-.515.141-.621.141-.867 0-.08-.022-.505-.384-.788-.098-.08-.448-.24-.999-.2l.298-1.152c.423.032.835.043 1.258.043 1.126 0 2.4-.122 3.768-.4l-4.412 17.42c-.357 1.362-.367 1.774-.367 1.826 0 .35.191.572.46.572.128 0 .373-.061.776-.522.235-.26.592-.686 1.524-2.498l.779.318c-.545 1.234-1.217 2.315-1.708 2.924-.744.935-1.605 1.62-2.77 1.62-1.164 0-2.077-.921-2.077-2.79 0-.275.053-.966.357-2.192l-.002-.002Zm-2.828-16.322c.873 0 1.646.804 1.646 2.097 0 1.388-.773 2.19-1.695 2.19-.923 0-1.662-.79-1.662-2.085 0-.657.391-2.202 1.712-2.202h-.001Zm.932 6.72-2.77 10.9c-.259.916-.266 1.144-.266 1.245 0 .47.206.632.426.632.094 0 .257-.037.538-.325.245-.242.751-.89 1.217-1.78l.695.363c-1.38 2.84-2.914 3.577-3.993 3.577-1.155 0-1.943-.997-1.943-2.46 0-.493.071-1.182.31-2.124l1.706-6.649c.122-.462.141-.687.141-.785 0-.363-.141-.678-.316-.834-.105-.104-.41-.273-1.098-.247l.281-1.114c.394.023.792.041 1.192.041 1.449 0 2.666-.15 3.88-.442v.002ZM68.811 52.022h-1.086l.031-12.49-6.552 12.493H60.08l.027-17.947c0-1.068-.169-1.866-1.676-1.74l.29-1.23 6.69-.012-.294 1.229c-1.088-.01-1.404.37-1.548 1.099-.022.102-.044.15-.06.92l-.019 10.743 4.272-8.046.007-2.89c0-.996-.088-1.129-.151-1.256-.172-.316-.516-.628-1.42-.567l.303-1.22h6.759l-.262 1.22c-1.446-.043-1.825.399-1.825 1.906l-.03 10.567 4.894-9.447c.502-.97.551-1.403.551-1.693 0-.697-.281-1.129-.913-1.284-.279-.062-.555-.045-.832-.037l.284-1.222h5.99l-.294 1.222c-.789-.07-1.402.144-2.244 1.212-.09.125-.553.798-1.126 1.9l-8.642 16.57h-.001ZM87.687 78.56l.035-12.49-6.574 12.492h-1.13l.031-17.942c0-1.073-.166-1.87-1.683-1.74l.29-1.227 6.71-.016-.289 1.231c-1.098-.012-1.407.365-1.555 1.1-.025.101-.047.15-.06.912l-.021 10.752 4.289-8.048v-2.89c0-.995-.09-1.129-.154-1.253-.162-.319-.516-.63-1.424-.57l.304-1.218h6.78l-.266 1.218c-1.449-.047-1.825.396-1.825 1.905l-.032 10.566 4.903-9.453c.507-.962.563-1.396.563-1.684 0-.7-.293-1.133-.922-1.288-.28-.063-.56-.038-.84-.038l.292-1.219h6.001l-.291 1.22c-.792-.07-1.411.146-2.249 1.217-.093.123-.56.797-1.132 1.895l-8.669 16.569h-1.086l.004-.002Zm9.578 14.428c-.353.29-.789.465-1.312.529-.37.05-.83-.02-1.377-.214-.274-.11-.553-.22-.83-.334-.078-.035-.161-.067-.24-.101-.11-.039-.222-.082-.335-.12-.031-.015-.063-.032-.093-.044-.12-.042-.232-.082-.347-.126l-.448-.182c-.02-.003-.16-.051-.426-.142-.085-.032-.203-.075-.344-.129a1.316 1.316 0 0 0-.198-.075c.02-.056.054-.157.113-.295.046.003.134.025.269.057.266.066.447.081.553.05.066-.025.128-.094.186-.205.012-.025.171-.393.47-1.092.046-.132.102-.27.149-.403.066-.16.131-.322.193-.48.16-.415.323-.826.48-1.242.019-.047.037-.094.056-.147a.202.202 0 0 0 .003-.165c-.01-.022-.054-.05-.135-.081-.069-.032-.147-.051-.237-.076a2.889 2.889 0 0 0-.307-.088.817.817 0 0 0-.078-.022c.044-.107.085-.212.13-.318.165.02.393.058.687.126.482.113 1.061.292 1.727.54.558.208.957.378 1.199.53.367.233.641.484.832.755.254.364.416.741.485 1.132.066.39.044.78-.079 1.179-.15.5-.4.9-.748 1.179l.001.004Zm6.787-1.976c-.06.261-.113.522-.169.787-.003.057-.013.107-.022.158-.003.015-.01.037-.015.069-.057-.007-.113-.017-.167-.025a23.64 23.64 0 0 0-.137-.039c-.009-.054-.027-.138-.044-.246-.034-.1-.066-.201-.1-.305-.034-.128-.1-.26-.179-.406a1.049 1.049 0 0 0-.24-.088c-.029-.007-.103-.032-.237-.069-.238-.079-.502-.148-.776-.22a24.5 24.5 0 0 0-.854-.194c-.022.06-.091.31-.203.739-.05.21-.106.425-.157.635-.041.16-.084.317-.125.479.066.022.122.04.172.053.479.126.829.195 1.032.231.213.032.345.035.401.015a.403.403 0 0 0 .166-.138c.039-.05.125-.223.267-.523.019 0 .034 0 .053.007.079.02.154.034.232.056l-.093.517c-.066.268-.106.437-.122.512l-.047.18c-.01.07-.037.176-.059.33a4.184 4.184 0 0 1-.063.34l-.019.086c-.098-.025-.191-.041-.291-.062 0-.044-.003-.133-.007-.265 0-.253-.015-.409-.047-.48-.022-.056-.069-.097-.141-.14-.05-.032-.245-.086-.592-.17-.413-.1-.717-.167-.93-.201-.015.066-.029.11-.031.128-.079.302-.138.553-.179.755-.071.27-.144.541-.22.812-.024.094 0 .17.064.226.103.082.447.202 1.029.34.388.094.723.145 1.011.148a.963.963 0 0 0 .548-.148c.225-.126.431-.334.616-.617.091.01.162.02.216.032.027.006.075.015.135.031-.02.062-.038.114-.05.158-.015.034-.034.072-.047.11-.1.23-.197.463-.298.69-.059.144-.112.282-.166.42a6.05 6.05 0 0 1-.44-.079 29.73 29.73 0 0 1-1.249-.32l-1.727-.457c-.338-.084-.748-.185-1.245-.302-.06-.013-.12-.032-.179-.05-.169-.041-.337-.088-.506-.132.022-.086.046-.17.075-.256.056.004.166.017.326.054.297.05.51.062.631.047a.806.806 0 0 0 .122-.261l.06-.22c.006-.037.021-.078.034-.115.125-.475.25-.948.381-1.42.035-.145.079-.284.12-.428.05-.201.093-.401.147-.603l.12-.421c.034-.164.061-.322.097-.482 0-.01.007-.034.012-.079-.015-.031-.05-.062-.103-.081-.025-.012-.063-.034-.11-.058a2.947 2.947 0 0 0-.413-.175c-.044-.016-.1-.039-.163-.064.037-.1.072-.197.105-.295.147.05.27.1.372.145.194.088.426.167.695.241.091.025.332.086.722.17.583.126 1.104.242 1.571.355.235.051.47.1.707.152.16.032.389.103.692.207a.333.333 0 0 1 .032.22h-.001Zm5.26 1.936c-.051.447-.238.795-.576 1.038-.33.242-.731.337-1.191.27a1.915 1.915 0 0 1-.448-.115 1.548 1.548 0 0 1-.382-.224 1.79 1.79 0 0 1 .028-.312c.063.013.125.025.175.039.054.012.101.02.138.025.232.034.438 0 .614-.097.232-.13.372-.369.416-.724.031-.254.019-.468-.05-.637-.069-.177-.159-.3-.272-.376a1.337 1.337 0 0 0-.55-.197c-.204-.032-.345-.025-.438.02a.366.366 0 0 0-.062.087c-.085.604-.176 1.214-.26 1.821-.012.054-.022.101-.031.155-.003.054-.013.106-.015.164-.003.038-.01.089-.022.158-.015.106-.029.211-.047.317-.027.167-.049.337-.078.507-.032.201-.069.403-.103.598a3.79 3.79 0 0 0-.029.349c.279.079.553.155.829.23.003.057 0 .111-.002.145a1.184 1.184 0 0 1-.044.158c-.073 0-.125 0-.167-.007a6.034 6.034 0 0 1-.491-.106c-.24-.051-.519-.11-.829-.165a10.228 10.228 0 0 0-1.018-.113 2.339 2.339 0 0 1-.254-.032c0-.074.007-.13.013-.17a.4.4 0 0 1 .028-.1c.091-.01.182-.02.269-.032.186-.016.351-.044.492-.094a.63.63 0 0 0 .076-.192c.002-.027.009-.059.012-.09.009-.08.027-.193.053-.338.064-.361.12-.72.179-1.08l.169-1.227c.084-.585.125-.9.125-.95a.372.372 0 0 0-.066-.189.453.453 0 0 0-.21-.132 3.492 3.492 0 0 1-.414-.17c.013-.094.035-.195.05-.293.306.08.614.155.923.23l.423.07a11.975 11.975 0 0 0 .91.119c.193.012.313.029.366.038.333.044.579.097.742.158.25.085.445.192.582.327.135.128.25.308.338.534.088.224.119.425.1.608l-.001-.003Zm-1.509-57.605c-.92 0-1.662-.79-1.662-2.085 0-.657.399-2.202 1.718-2.202.869 0 1.639.804 1.639 2.097 0 1.388-.77 2.19-1.695 2.19Zm7.685 56.927a1.366 1.366 0 0 1-.311.044c-.178.02-.281.038-.298.051a.185.185 0 0 0-.059.145c0 .047 0 .116.01.207.007.063.007.177.003.337-.003.091-.003.165-.003.212 0 .056 0 .106.003.166.003.186.007.375.007.57.009.264.019.528.024.792-.012.531-.037.886-.085 1.063-.041.182-.1.32-.169.42a1.603 1.603 0 0 1-.46.422 2.27 2.27 0 0 1-.741.286 3.763 3.763 0 0 1-1.027.06 3.31 3.31 0 0 1-1.133-.24c-.31-.128-.535-.295-.678-.484-.15-.188-.235-.421-.269-.711a3.988 3.988 0 0 1 .012-.831c.059-.617.12-1.233.172-1.85.044-.44.046-.69.007-.753-.05-.085-.226-.148-.529-.192-.066-.007-.122-.012-.169-.025.01-.1.017-.207.025-.307.044 0 .093.002.147.012.127.012.269.029.413.05.345.053.551.082.614.088.21.02.416.028.619.037.203.007.382.02.541.022.154.01.262.013.323.013-.007.015-.007.032-.01.047-.003.076-.007.152-.007.23 0 .01 0 .02-.003.028a2.85 2.85 0 0 1-.462 0c-.15-.01-.25.007-.301.063-.037.035-.063.19-.084.463-.007.085-.009.148-.012.201-.003.047-.003.094-.003.143l-.038.364v.315c-.02.22-.044.447-.066.67l-.019.984c-.007.28.043.522.153.716a.86.86 0 0 0 .36.347c.232.126.46.197.695.207.276.015.531-.007.77-.057.142-.031.272-.088.401-.167.129-.074.213-.147.269-.21.1-.14.179-.273.218-.396.06-.17.094-.437.103-.8.022-.629 0-1.34-.043-2.125-.007-.07-.007-.138-.013-.207 0-.158-.025-.258-.078-.312a.405.405 0 0 0-.282-.133c-.125-.003-.249-.007-.379-.007a.406.406 0 0 1-.049-.015c.01-.1.012-.201.022-.297l.313.01c.254.022.504.04.757.06.256.005.501 0 .729-.02.022 0 .044.007.066.007.015.088.022.145.022.182a.57.57 0 0 1-.02.1l.002.005ZM115 77.282c-.748.938-1.605 1.624-2.775 1.624-1.169 0-2.084-.928-2.084-2.797 0-.273.056-.966.36-2.187l3.361-13.313c.129-.512.147-.63.147-.871 0-.08-.022-.503-.385-.784-.093-.076-.45-.242-1.003-.203l.296-1.153c.423.035.832.048 1.258.048 1.133 0 2.407-.121 3.783-.408l-4.424 17.427c-.353 1.365-.365 1.774-.365 1.825 0 .347.193.573.46.573.129 0 .372-.062.773-.522.237-.258.597-.692 1.529-2.497l.773.32c-.538 1.237-1.208 2.31-1.702 2.92l-.002-.002Zm3.89 19.689c-.038.007-.066.007-.088.01-.093.01-.141.012-.156.015a1.19 1.19 0 0 1-.116-.01l-.569-.037c-.254.007-.504.008-.758.008-.154 0-.372.02-.661.044-.188.02-.316.027-.372.032v-.283c.056-.02.157-.034.282-.069.185-.041.318-.081.41-.132a.59.59 0 0 0 .076-.333c-.003-.152-.007-.31-.013-.46v-.893a4.77 4.77 0 0 0-.005-.207c.019-.515.027-.783.025-.8-.003-.17-.01-.346-.016-.516.007-.075.01-.145.013-.214-.01-.148-.015-.295-.028-.447-.002-.054-.002-.11-.009-.165 0-.024-.013-.069-.029-.125-.11-.051-.287-.079-.531-.089-.057-.007-.106-.007-.141-.012-.002-.116-.002-.233-.006-.342.379.015.753.025 1.135.034.137.007.228.007.26.007.159-.007.403-.025.748-.057.194-.022.316-.034.367-.037.002.051.009.094.009.126 0 .044 0 .1-.007.17-.1.038-.218.081-.357.12a2.344 2.344 0 0 0-.331.11c-.015.066-.019.167-.015.293.003.106.007.204.015.273a78.292 78.292 0 0 0 .057 2.042c-.003.177-.003.352-.007.529.012.258.027.516.04.777l-.01.148c0 .022.01.05.029.091.171.028.328.041.472.054.028 0 .113.008.26.022.016.079.024.142.029.195v.13l-.002-.002Zm4.358-1.183a1.09 1.09 0 0 1-.218.384 3.28 3.28 0 0 1-.369.314c-.169.12-.351.214-.539.283a3.048 3.048 0 0 1-.738.126c-.201.02-.441.012-.723-.022-.171-.032-.347-.07-.523-.104-.141-.027-.237-.053-.272-.081-.019-.007-.034-.032-.044-.07-.002-.016-.002-.025-.002-.043 0-.026-.019-.205-.054-.535-.009-.167-.025-.283-.025-.352l-.009-.15c.132-.013.259-.02.391-.032.157.283.25.45.298.507.093.13.196.23.306.305.113.072.245.133.394.164.153.044.316.05.492.037.15-.012.316-.059.497-.132a.973.973 0 0 0 .416-.34.69.69 0 0 0 .122-.453c-.019-.194-.132-.361-.338-.503-.131-.089-.457-.195-.983-.32-.519-.13-.881-.259-1.088-.379a1.372 1.372 0 0 1-.492-.502 1.43 1.43 0 0 1-.201-.633 1.43 1.43 0 0 1 .395-1.08c.284-.305.716-.48 1.304-.528.125-.013.313-.007.563.015.156.01.36.047.612.103.039.089.073.215.113.391.062.265.1.468.115.616a1.37 1.37 0 0 1 0 .157.075.075 0 0 0-.041.017l-.294.003h-.046c-.153-.327-.294-.547-.423-.657a.972.972 0 0 0-.742-.252c-.252.022-.457.104-.601.251a.62.62 0 0 0-.194.514c.007.163.094.32.26.46.162.145.497.27 1.007.362.167.034.373.09.624.17.247.08.435.175.57.282.181.145.313.286.391.431.074.138.132.32.152.544.029.242.01.487-.066.733l.003-.001Zm-2.175-16.832c-1.47 0-2.581-1.145-2.581-3.379 0-.359.069-1.227.419-2.598l1.786-7.092h-2.239l.303-1.227 2.256.025 1.377-5.429h3.247l-1.389 5.404h2.882l-.288 1.202h-2.907l-1.884 7.482c-.262 1.107-.269 1.163-.316 1.402-.149.785-.169 1.09-.169 1.304 0 .811.37 1.16.783 1.16.294 0 1.167-.21 2.378-2.84l.736.462c-.914 2.3-2.591 4.124-4.392 4.124h-.002Zm7.911 16.8a8.615 8.615 0 0 1-.544.088c-.144.025-.247.038-.298.05-.069.01-.32.064-.748.155-.05.01-.091.015-.12.022-.025.007-.053.01-.078.016-.044 0-.081.009-.125.009-.037.012-.076.019-.115.031-.069.007-.141.02-.213.027-.028.005-.081.019-.172.04-.008-.054-.022-.098-.027-.129-.01-.025-.01-.069-.013-.132.11-.044.235-.094.382-.148.198-.072.318-.135.357-.175a.179.179 0 0 0 .047-.16 5.82 5.82 0 0 1-.054-.261 4.403 4.403 0 0 0-.032-.286c-.034-.195-.072-.39-.105-.586l-.028-.151c-.007-.02-.012-.094-.031-.23-.01-.073-.013-.132-.025-.186-.007-.032-.027-.14-.066-.315a3.707 3.707 0 0 1-.025-.216c-.037-.167-.063-.268-.068-.3-.003-.037-.01-.072-.013-.113-.002-.032-.002-.064-.009-.094-.015-.088-.04-.177-.057-.261-.002-.04-.009-.079-.009-.123-.007-.05-.017-.126-.032-.214-.019-.088-.037-.195-.059-.32a6.66 6.66 0 0 1-.579.519c-.025.022-.138.091-.338.217a1.515 1.515 0 0 1-.206-.252c.262-.189.435-.32.523-.406a5.17 5.17 0 0 0 .47-.512 2.87 2.87 0 0 0 .247-.396c.015 0 .103-.022.266-.06.044-.006.084-.009.128-.016a6.39 6.39 0 0 1 .247-.044c.025.081.04.138.047.177.004.012.009.05.025.12 0 .038.022.172.068.412l.1.582c.022.12.044.239.073.361.153.866.311 1.732.46 2.596.015.072.028.145.044.214.012.081.044.133.088.157.047.025.159.032.338.025.066-.012.203-.012.41-.025.01.025.022.051.025.076.007.025.015.089.032.183-.059.012-.125.022-.186.037l-.002-.003Zm3.569-2.687a4.367 4.367 0 0 1-.159.623c-.097.308-.259.6-.491.888-.23.288-.489.522-.786.698-.291.177-.541.285-.744.332-.037.01-.091.015-.163.027a.21.21 0 0 1-.098-.125.14.14 0 0 1 .019-.114c.01-.019.084-.073.223-.157.269-.164.491-.346.666-.541.178-.188.31-.406.397-.645.097-.236.14-.484.14-.736 0-.251-.013-.443-.044-.582-.007-.044-.025-.158-.047-.34a4.477 4.477 0 0 0-.091-.472c-.166-.642-.357-1.06-.578-1.26-.169-.15-.34-.204-.516-.162-.169.044-.291.154-.376.337-.106.248-.122.57-.035.956.054.243.125.463.204.667a.927.927 0 0 0 .235.35.442.442 0 0 0 .171.12c.115.02.225.02.335-.007a.907.907 0 0 0 .203-.079.247.247 0 0 1 .059-.027c.032-.01.066 0 .098.019a.194.194 0 0 1 .075.119c.025.098-.006.17-.078.214-.163.107-.34.182-.548.226-.129.035-.206.051-.244.044a2.706 2.706 0 0 1-.523-.081 1.475 1.475 0 0 1-.431-.249 1.12 1.12 0 0 1-.267-.34 2.297 2.297 0 0 1-.197-.553c-.062-.305-.054-.6.031-.89.088-.286.235-.52.453-.709.213-.186.457-.308.732-.374.492-.119.945-.04 1.37.239.423.278.732.758.918 1.447.09.34.122.718.085 1.139l.002-.002Zm4.157.032a1.32 1.32 0 0 1-.154.36c-.103.157-.272.311-.497.474a1.696 1.696 0 0 1-.529.261 2.92 2.92 0 0 1-.688.138c-.159.013-.3 0-.428-.039-.194-.063-.335-.12-.426-.187a1.131 1.131 0 0 1-.266-.252 1.444 1.444 0 0 1-.238-.462c-.075-.27-.024-.548.14-.837.101-.18.292-.374.561-.585-.36-.054-.642-.18-.852-.355-.206-.19-.335-.366-.384-.541a1.93 1.93 0 0 1-.059-.51c0-.192.041-.378.125-.548.088-.17.213-.327.379-.472a1.54 1.54 0 0 1 .575-.32c.404-.126.764-.123 1.092.02.325.135.548.37.653.694a.915.915 0 0 1 0 .553c-.049.212-.127.362-.232.457a6.476 6.476 0 0 1-.232.261c.003.017.091.035.257.06.169.024.372.113.619.258.172.106.304.201.372.29.072.09.138.214.187.371.082.236.117.421.107.554a2.14 2.14 0 0 1-.085.359l.003-.002Zm3.829-1.166c-.196.393-.566.704-1.113.912a1.583 1.583 0 0 1-.705.11 1.69 1.69 0 0 1-.648-.194 2.104 2.104 0 0 1-.519-.396 2.581 2.581 0 0 1-.516-.894 3.215 3.215 0 0 1-.164-.984 2.647 2.647 0 0 1 .176-1.04c.125-.328.291-.62.497-.882.21-.27.401-.472.576-.63.337-.288.604-.477.803-.563a.115.115 0 0 1 .1 0c.032.016.056.054.078.101a.324.324 0 0 1 .035.136c-.047.044-.132.11-.26.201-.284.202-.516.44-.688.717-.171.27-.278.522-.325.762a3.043 3.043 0 0 0-.007 1.021c.059.355.15.696.264 1.017.137.368.271.66.413.873.134.207.287.347.453.4a.697.697 0 0 0 .406-.046.727.727 0 0 0 .204-.119.752.752 0 0 0 .181-.277 1 1 0 0 0 .026-.492 2.676 2.676 0 0 0-.151-.519c-.169-.438-.36-.714-.553-.827a.662.662 0 0 0-.589-.05c-.086.025-.189.094-.316.188a.863.863 0 0 1-.05-.119 2.518 2.518 0 0 1-.041-.125 1.43 1.43 0 0 0 .12-.11c.152-.141.318-.25.497-.318a1.327 1.327 0 0 1 1.045.01c.341.147.601.425.775.851.187.46.187.888-.007 1.287l.003-.001Zm6.841-23.31c-1.079 0-1.546-1.39-1.627-2.102-.573.567-1.133 1.3-1.897 4.2l-2.071 7.85h-3.235l1.465-5.55c.697-2.645.863-4.404.863-5.336 0-1.441-.538-1.912-1.089-1.972l.26-1.014h3.254l.369 3.169c.47-.97 1.152-2.008 1.368-2.272.783-.959 1.477-1.252 2.124-1.252 1.045 0 1.865.92 1.865 2.234 0 1.205-.754 2.045-1.649 2.045Zm19.975-33.663-2.603 10.38c-1.361 5.462-3.886 7.187-6.631 7.187-2.281 0-3.526-1.672-3.526-3.386 0-.658.216-1.285.536-1.706.384-.508.973-.8 1.48-.8 1.02 0 1.847.949 1.847 2.225 0 .592-.157.966-.467 1.343-.328.406-.795.668-1.292.703.35.34.756.522 1.213.522.458 0 1.029-.285 1.415-.822.191-.255.607-.86 1.201-3.18l3.205-12.78c.144-.568.181-.959.181-1.177 0-.31-.15-.675-.388-.88-.147-.127-.429-.273-1.055-.273l-.644-.003.291-1.194h8.42l-.313 1.228c-2.031-.087-2.447.948-2.87 2.613Zm4.18 17.59c-1.033 0-1.928-1.042-1.928-2.24 0-.828.55-2.606 2.011-2.606 1.082 0 1.956 1.004 1.956 2.302 0 1.453-1.023 2.544-2.041 2.544h.002Z"></path><path fill-rule="evenodd" clip-rule="evenodd" d="M102.816 66.347c-.244 0-.587.12-.976.538-.206.224-.531.62-1.13 2.193-.917 2.46-1.343 5.168-1.343 6.455 0 1.22.48 1.656 1.086 1.656.409 0 1.368-.379 2.284-2.637.817-1.973 1.364-4.939 1.364-6.4 0-1.242-.594-1.805-1.286-1.805h.001Z"></path></g><defs><clipPath id="a"><path fill="#E8DDC1" d="M0 0h232v118H0z"></path></clipPath></defs></svg> 